<svg width="12" height="12" viewBox="0 0 12 12" fill="currentColor" xmlns="http://www.w3.org/2000/svg">
<path fill-rule="evenodd" clip-rule="evenodd" d="M3.78608 10.7068C3.59837 10.519 3.49293 10.2644 3.49293 9.99892C3.49293 9.73343 3.59837 9.4788 3.78608 9.29104L7.0832 5.99392L3.78608 2.6968C3.60369 2.50796 3.50277 2.25504 3.50505 1.99251C3.50733 1.72999 3.61263 1.47886 3.79827 1.29322C3.98391 1.10758 4.23504 1.00228 4.49757 1C4.76009 0.997719 5.01301 1.09864 5.20185 1.28103L9.20685 5.28603C9.39456 5.47379 9.50001 5.72842 9.50001 5.99392C9.50001 6.25941 9.39456 6.51404 9.20685 6.7018L5.20185 10.7068C5.01409 10.8945 4.75946 11 4.49396 11C4.22847 11 3.97384 10.8945 3.78608 10.7068Z" fill="currentColor"/>
</svg>
