<svg width="10" height="10" viewBox="0 0 10 10" fill="none" xmlns="http://www.w3.org/2000/svg">
  <path d="M3.18184 0C1.42457 0 2.05027e-05 1.5903 2.05027e-05 3.55202C2.05027e-05 5.51375 1.42457 7.10404 3.18184 7.10404H3.66861C3.64737 6.93831 3.63638 6.76888 3.63638 6.59661C3.63638 6.42434 3.64737 6.2549 3.66861 6.08918H3.18184C1.92665 6.08918 0.909111 4.95324 0.909111 3.55202C0.909111 2.15079 1.92665 1.01486 3.18184 1.01486H6.8182C8.07338 1.01486 9.09093 2.15079 9.09093 3.55202C9.09093 3.72597 9.07525 3.8958 9.04538 4.05986C9.31152 4.35112 9.53202 4.69415 9.69384 5.07431C9.89016 4.61291 10 4.0968 10 3.55202C10 1.5903 8.57547 0 6.8182 0H3.18184ZM6.8182 5.07431C6.06507 5.07431 5.45457 5.75585 5.45457 6.59661C5.45457 7.43737 6.06507 8.1189 6.8182 8.1189C7.57134 8.1189 8.18184 7.43737 8.18184 6.59661C8.18184 5.75585 7.57134 5.07431 6.8182 5.07431ZM4.54548 6.59661C4.54548 5.19539 5.56302 4.05945 6.8182 4.05945C8.07338 4.05945 9.09093 5.19539 9.09093 6.59661C9.09093 7.11373 8.95234 7.59473 8.71438 7.9958L9.86688 9.28239L9.22407 10L8.07157 8.71341C7.71229 8.97905 7.28143 9.13377 6.8182 9.13377C5.56302 9.13377 4.54548 7.99783 4.54548 6.59661Z" fill="#222222"/>
</svg>